<?xml version="1.0" encoding="UTF-8" standalone="no"?>
<!-- Created with Inkscape (http://www.inkscape.org/) -->

<svg
   xmlns:dc="http://purl.org/dc/elements/1.1/"
   xmlns:cc="http://creativecommons.org/ns#"
   xmlns:rdf="http://www.w3.org/1999/02/22-rdf-syntax-ns#"
   xmlns:svg="http://www.w3.org/2000/svg"
   xmlns="http://www.w3.org/2000/svg"
   xmlns:sodipodi="http://sodipodi.sourceforge.net/DTD/sodipodi-0.dtd"
   xmlns:inkscape="http://www.inkscape.org/namespaces/inkscape"
   width="210mm"
   height="297mm"
   viewBox="0 0 210 297"
   version="1.1"
   id="svg6193"
   inkscape:version="0.92.1 r15371"
   sodipodi:docname="R2-punto.svg"
   inkscape:export-filename="/home/slack/UTFSM/actual/tesilla/tesis/imagenes/R2-punto.png"
   inkscape:export-xdpi="96"
   inkscape:export-ydpi="96">
  <defs
     id="defs6187">
    <marker
       inkscape:stockid="Arrow1Lstart"
       orient="auto"
       refY="0.0"
       refX="0.0"
       id="Arrow1Lstart"
       style="overflow:visible"
       inkscape:isstock="true">
      <path
         id="path4661"
         d="M 0.0,0.0 L 5.0,-5.0 L -12.5,0.0 L 5.0,5.0 L 0.0,0.0 z "
         style="fill-rule:evenodd;stroke:#000000;stroke-width:1pt;stroke-opacity:1;fill:#000000;fill-opacity:1"
         transform="scale(0.8) translate(12.5,0)" />
    </marker>
    <marker
       inkscape:isstock="true"
       style="overflow:visible;"
       id="marker7070"
       refX="0.0"
       refY="0.0"
       orient="auto"
       inkscape:stockid="Arrow1Lend">
      <path
         transform="scale(0.8) rotate(180) translate(12.5,0)"
         style="fill-rule:evenodd;stroke:#000000;stroke-width:1pt;stroke-opacity:1;fill:#ffff00;fill-opacity:1"
         d="M 0.0,0.0 L 5.0,-5.0 L -12.5,0.0 L 5.0,5.0 L 0.0,0.0 z "
         id="path7068" />
    </marker>
    <marker
       inkscape:stockid="Arrow1Lend"
       orient="auto"
       refY="0.0"
       refX="0.0"
       id="marker7006"
       style="overflow:visible;"
       inkscape:isstock="true"
       inkscape:collect="always">
      <path
         id="path7004"
         d="M 0.0,0.0 L 5.0,-5.0 L -12.5,0.0 L 5.0,5.0 L 0.0,0.0 z "
         style="fill-rule:evenodd;stroke:#000000;stroke-width:1pt;stroke-opacity:1;fill:#000000;fill-opacity:1"
         transform="scale(0.8) rotate(180) translate(12.5,0)" />
    </marker>
    <marker
       inkscape:stockid="Arrow2Lstart"
       orient="auto"
       refY="0.0"
       refX="0.0"
       id="Arrow2Lstart"
       style="overflow:visible"
       inkscape:isstock="true">
      <path
         id="path4679"
         style="fill-rule:evenodd;stroke-width:0.625;stroke-linejoin:round;stroke:#000000;stroke-opacity:1;fill:#000000;fill-opacity:1"
         d="M 8.7185878,4.0337352 L -2.2072895,0.016013256 L 8.7185884,-4.0017078 C 6.9730900,-1.6296469 6.9831476,1.6157441 8.7185878,4.0337352 z "
         transform="scale(1.1) translate(1,0)" />
    </marker>
    <marker
       inkscape:isstock="true"
       style="overflow:visible;"
       id="marker6910"
       refX="0.0"
       refY="0.0"
       orient="auto"
       inkscape:stockid="Arrow1Lend">
      <path
         transform="scale(0.8) rotate(180) translate(12.5,0)"
         style="fill-rule:evenodd;stroke:#000000;stroke-width:1pt;stroke-opacity:1;fill:#000000;fill-opacity:1"
         d="M 0.0,0.0 L 5.0,-5.0 L -12.5,0.0 L 5.0,5.0 L 0.0,0.0 z "
         id="path6908" />
    </marker>
    <marker
       inkscape:isstock="true"
       style="overflow:visible;"
       id="marker6834"
       refX="0.0"
       refY="0.0"
       orient="auto"
       inkscape:stockid="Arrow1Lend"
       inkscape:collect="always">
      <path
         transform="scale(0.8) rotate(180) translate(12.5,0)"
         style="fill-rule:evenodd;stroke:#000000;stroke-width:1pt;stroke-opacity:1;fill:#000000;fill-opacity:1"
         d="M 0.0,0.0 L 5.0,-5.0 L -12.5,0.0 L 5.0,5.0 L 0.0,0.0 z "
         id="path6832" />
    </marker>
    <marker
       inkscape:stockid="Arrow1Mend"
       orient="auto"
       refY="0.0"
       refX="0.0"
       id="Arrow1Mend"
       style="overflow:visible;"
       inkscape:isstock="true">
      <path
         id="path4670"
         d="M 0.0,0.0 L 5.0,-5.0 L -12.5,0.0 L 5.0,5.0 L 0.0,0.0 z "
         style="fill-rule:evenodd;stroke:#000000;stroke-width:1pt;stroke-opacity:1;fill:#000000;fill-opacity:1"
         transform="scale(0.4) rotate(180) translate(10,0)" />
    </marker>
    <inkscape:path-effect
       effect="bspline"
       id="path-effect6786"
       is_visible="true"
       weight="33.333333"
       steps="2"
       helper_size="0"
       apply_no_weight="true"
       apply_with_weight="true"
       only_selected="false" />
    <marker
       inkscape:stockid="Arrow1Lend"
       orient="auto"
       refY="0.0"
       refX="0.0"
       id="Arrow1Lend"
       style="overflow:visible;"
       inkscape:isstock="true"
       inkscape:collect="always">
      <path
         id="path4664"
         d="M 0.0,0.0 L 5.0,-5.0 L -12.5,0.0 L 5.0,5.0 L 0.0,0.0 z "
         style="fill-rule:evenodd;stroke:#000000;stroke-width:1pt;stroke-opacity:1;fill:#000000;fill-opacity:1"
         transform="scale(0.8) rotate(180) translate(12.5,0)" />
    </marker>
    <inkscape:path-effect
       effect="bspline"
       id="path-effect6219"
       is_visible="true"
       weight="33.333333"
       steps="2"
       helper_size="0"
       apply_no_weight="true"
       apply_with_weight="true"
       only_selected="false" />
  </defs>
  <sodipodi:namedview
     id="base"
     pagecolor="#ffffff"
     bordercolor="#666666"
     borderopacity="1.0"
     inkscape:pageopacity="0.0"
     inkscape:pageshadow="2"
     inkscape:zoom="1.423702"
     inkscape:cx="383.12649"
     inkscape:cy="868.2"
     inkscape:document-units="mm"
     inkscape:current-layer="layer1"
     showgrid="false"
     inkscape:window-width="1430"
     inkscape:window-height="865"
     inkscape:window-x="0"
     inkscape:window-y="25"
     inkscape:window-maximized="0" />
  <metadata
     id="metadata6190">
    <rdf:RDF>
      <cc:Work
         rdf:about="">
        <dc:format>image/svg+xml</dc:format>
        <dc:type
           rdf:resource="http://purl.org/dc/dcmitype/StillImage" />
        <dc:title></dc:title>
      </cc:Work>
    </rdf:RDF>
  </metadata>
  <g
     inkscape:label="Capa 1"
     inkscape:groupmode="layer"
     id="layer1">
    <path
       style="fill:none;stroke:#000000;stroke-width:0.24928088px;stroke-linecap:butt;stroke-linejoin:miter;stroke-opacity:1;marker-start:url(#Arrow2Lstart);marker-end:url(#marker7006)"
       d="M 52.096531,115.83609 V 19.877575"
       id="path6195"
       inkscape:connector-curvature="0" />
    <path
       style="fill:#000000;stroke:#000000;stroke-width:0.26458332px;stroke-linecap:butt;stroke-linejoin:miter;stroke-opacity:1;marker-start:url(#Arrow1Lstart);marker-end:url(#marker6910)"
       d="M 191.46697,101.36313 H 24.023512"
       id="path6197"
       inkscape:connector-curvature="0" />
    <circle
       style="fill:#000000;fill-opacity:1;stroke-width:0.26458332;stroke-miterlimit:4;stroke-dasharray:1.05833326, 1.05833326;stroke-dashoffset:0"
       id="path6199"
       cx="82.669388"
       cy="78.646805"
       r="1.5119048" />
    <path
       style="fill:none;stroke:#000000;stroke-width:0.26499999;stroke-linecap:butt;stroke-linejoin:miter;stroke-miterlimit:4;stroke-dasharray:none;stroke-opacity:1;marker-mid:url(#Arrow1Lend)"
       d="m 72.023277,85.891357 c 2.582765,0.693 6.614512,2.204906 9.859118,1.547704 3.244606,-0.657201 5.826922,-3.626863 7.653675,-7.028475 1.826753,-3.401613 2.96079,-7.307748 0.441202,-10.835216 -2.519588,-3.527467 -8.693692,-6.67752 -12.819947,-9.356808 -4.126255,-2.679287 -6.079213,-4.754306 -8.472949,-3.809521 -2.393736,0.944786 -5.165571,4.976547 -4.535545,8.567605 0.630025,3.591058 4.661468,6.740621 5.039599,9.134371 0.37813,2.393749 -2.897692,4.03166 -3.864773,5.765652 -0.967081,1.733993 0.462763,3.68378 1.722859,4.565729 1.260096,0.881949 2.393997,0.75596 4.976761,1.448959 z"
       id="path6217"
       inkscape:connector-curvature="0"
       inkscape:path-effect="#path-effect6219"
       inkscape:original-d="m 70.574152,85.072398 c 4.032009,1.511641 8.063757,3.023545 12.095237,4.535715 2.520016,-2.771989 5.039946,-5.795899 7.559526,-8.693451 1.13408,-3.905639 2.26812,-7.811773 3.40178,-11.717264 -6.17285,-3.149811 -12.346953,-6.299866 -18.52083,-9.449403 -2.015641,-2.268159 -4.03148,-4.283996 -6.047619,-6.425596 -2.77155,4.031466 -5.543385,8.063227 -8.315475,12.095239 4.032313,3.149774 8.063756,6.299337 12.095239,9.449403 -3.275502,1.63762 -6.551324,3.275531 -9.827382,4.913691 1.260308,1.889799 2.77209,3.779498 4.157737,5.669642 1.134221,-0.126259 2.268122,-0.252249 3.401787,-0.377976 z" />
    <path
       style="fill:none;stroke:#000000;stroke-width:0.26458332px;stroke-linecap:butt;stroke-linejoin:miter;stroke-opacity:1;marker-mid:url(#marker6834)"
       d="m 92.433927,78.394743 c 1.826717,2.897884 6.614415,8.18955 12.284233,10.773578 5.66981,2.584028 12.47331,2.45566 18.07982,-1.702067 5.60651,-4.157727 10.14241,-12.347542 15.11896,-15.119234 4.97655,-2.771692 10.39442,-0.12576 14.80414,-1.826775 4.40972,-1.701015 7.81157,-7.748754 7.93753,-13.418143 0.12597,-5.669388 -3.024,-10.961332 -8.63046,-14.489034 -5.60647,-3.527703 -13.67008,-5.291617 -18.89876,-4.598792 -5.22869,0.692824 -7.62248,3.842548 -10.58344,6.992521 -2.96095,3.149972 -6.4884,6.29948 -11.71741,6.42551 -5.22901,0.126031 -12.158032,-2.771559 -16.126814,-2.330735 -3.968783,0.440823 -4.976701,4.220515 -4.472703,7.370562 0.503999,3.150047 2.519702,5.669676 3.212697,8.567378 0.692996,2.897703 0.06304,6.173455 -0.818823,8.063441 -0.881867,1.889986 -2.015688,2.393906 -0.18897,5.29179 z"
       id="path6784"
       inkscape:connector-curvature="0"
       inkscape:path-effect="#path-effect6786"
       inkscape:original-d="m 89.472955,76.000971 c 4.78797,5.291402 9.575667,10.583069 14.363095,15.875 6.55187,-0.126259 13.35542,-0.252248 20.03274,-0.377978 4.53579,-8.189418 9.07169,-16.379232 13.60714,-24.568451 5.41772,2.645468 10.83558,5.291402 16.25298,7.937499 3.40198,-6.047761 6.80383,-12.095501 10.20535,-18.142857 -3.14937,-5.291656 -6.29934,-10.583597 -9.4494,-15.874999 -8.06311,-1.764127 -16.12672,-3.528042 -24.19048,-5.291666 -2.39364,3.149613 -4.78743,6.299338 -7.18155,9.449404 -3.52784,3.149832 -7.05529,6.299338 -10.58333,9.449404 -6.92984,-2.89831 -13.858858,-5.795899 -20.788685,-8.693451 -1.00769,3.779568 -2.01561,7.559259 -3.02381,11.339284 2.01631,2.519786 4.03201,5.039418 6.04762,7.559524 -0.6297,3.275571 -1.25965,6.551324 -1.88988,9.827382 -1.13377,0.50375 -2.26759,1.007671 -3.40179,1.511905 z" />
    <circle
       style="fill:#000000;fill-opacity:1;stroke-width:1.00157475;stroke-miterlimit:4;stroke-dasharray:none;stroke-dashoffset:0"
       id="path7231"
       cx="0"
       cy="0"
       r="0"
       transform="scale(0.26458333)" />
    <ellipse
       style="fill:#ff0000;fill-opacity:1;stroke-width:0.26499999;stroke-miterlimit:4;stroke-dasharray:none;stroke-dashoffset:0"
       id="path7246"
       cx="91.190674"
       cy="76.56398"
       rx="1.2432492"
       ry="1.8307635" />
  </g>
</svg>
